<mxfile host="app.diagrams.net" modified="2022-10-31T12:19:03.139Z" agent="5.0 (Windows)" etag="0orjKzWsr4W2yvaJ20oS" version="20.5.1" type="github">
  <diagram id="C5RBs43oDa-KdzZeNtuy" name="Page-1">
    <mxGraphModel dx="739" dy="425" grid="1" gridSize="10" guides="1" tooltips="1" connect="1" arrows="1" fold="1" page="1" pageScale="1" pageWidth="827" pageHeight="1169" math="0" shadow="0">
      <root>
        <mxCell id="WIyWlLk6GJQsqaUBKTNV-0" />
        <mxCell id="WIyWlLk6GJQsqaUBKTNV-1" parent="WIyWlLk6GJQsqaUBKTNV-0" />
        <object label="" title="Application Queue System A" id="fKDOiJsQA8onxevD5LG3-1">
          <mxCell style="strokeWidth=2;html=1;shape=mxgraph.flowchart.multi-document;whiteSpace=wrap;" vertex="1" parent="WIyWlLk6GJQsqaUBKTNV-1">
            <mxGeometry x="740" y="180" width="860" height="460" as="geometry" />
          </mxCell>
        </object>
        <object label="Queue 1" title="Application A Queue 1" id="fKDOiJsQA8onxevD5LG3-14">
          <mxCell style="swimlane;" vertex="1" parent="WIyWlLk6GJQsqaUBKTNV-1">
            <mxGeometry x="800" y="280" width="300" height="270" as="geometry" />
          </mxCell>
        </object>
        <object label="Notify Job" title="Notify Job" id="fKDOiJsQA8onxevD5LG3-15">
          <mxCell style="verticalLabelPosition=bottom;verticalAlign=top;html=1;shape=process;whiteSpace=wrap;rounded=1;size=0.14;arcSize=6;" vertex="1" parent="fKDOiJsQA8onxevD5LG3-14">
            <mxGeometry x="10" y="30" width="280" height="30" as="geometry" />
          </mxCell>
        </object>
        <mxCell id="fKDOiJsQA8onxevD5LG3-23" value="Task 5" style="verticalLabelPosition=bottom;verticalAlign=top;html=1;shape=process;whiteSpace=wrap;rounded=1;size=0.14;arcSize=6;" vertex="1" parent="fKDOiJsQA8onxevD5LG3-14">
          <mxGeometry x="10" y="90" width="280" height="30" as="geometry" />
        </mxCell>
        <mxCell id="fKDOiJsQA8onxevD5LG3-25" value="Task 1" style="verticalLabelPosition=bottom;verticalAlign=top;html=1;shape=process;whiteSpace=wrap;rounded=1;size=0.14;arcSize=6;" vertex="1" parent="fKDOiJsQA8onxevD5LG3-14">
          <mxGeometry x="10" y="210" width="280" height="30" as="geometry" />
        </mxCell>
        <mxCell id="fKDOiJsQA8onxevD5LG3-2" value="" style="endArrow=classic;html=1;rounded=0;exitX=0.5;exitY=1;exitDx=0;exitDy=0;exitPerimeter=0;entryX=0.5;entryY=0;entryDx=0;entryDy=0;entryPerimeter=0;" edge="1" parent="WIyWlLk6GJQsqaUBKTNV-1" target="fKDOiJsQA8onxevD5LG3-1">
          <mxGeometry width="50" height="50" relative="1" as="geometry">
            <mxPoint x="1170" y="100" as="sourcePoint" />
            <mxPoint x="800" y="190" as="targetPoint" />
          </mxGeometry>
        </mxCell>
        <object label="System C" title="System C" id="fKDOiJsQA8onxevD5LG3-3">
          <mxCell style="rounded=1;whiteSpace=wrap;html=1;absoluteArcSize=1;arcSize=14;strokeWidth=2;fillColor=#E8E8E8;" vertex="1" parent="WIyWlLk6GJQsqaUBKTNV-1">
            <mxGeometry x="1120" y="690" width="100" height="100" as="geometry" />
          </mxCell>
        </object>
        <object label="Queue 2" title="Application A Queue 2" id="fKDOiJsQA8onxevD5LG3-16">
          <mxCell style="swimlane;" vertex="1" parent="WIyWlLk6GJQsqaUBKTNV-1">
            <mxGeometry x="1130" y="280" width="300" height="270" as="geometry" />
          </mxCell>
        </object>
        <mxCell id="fKDOiJsQA8onxevD5LG3-17" value="Task 2" style="verticalLabelPosition=bottom;verticalAlign=top;html=1;shape=process;whiteSpace=wrap;rounded=1;size=0.14;arcSize=6;" vertex="1" parent="fKDOiJsQA8onxevD5LG3-16">
          <mxGeometry x="10" y="210" width="280" height="30" as="geometry" />
        </mxCell>
        <mxCell id="fKDOiJsQA8onxevD5LG3-26" value="Task 4" style="verticalLabelPosition=bottom;verticalAlign=top;html=1;shape=process;whiteSpace=wrap;rounded=1;size=0.14;arcSize=6;" vertex="1" parent="fKDOiJsQA8onxevD5LG3-16">
          <mxGeometry x="10" y="150" width="280" height="30" as="geometry" />
        </mxCell>
        <mxCell id="fKDOiJsQA8onxevD5LG3-24" value="Task 3" style="verticalLabelPosition=bottom;verticalAlign=top;html=1;shape=process;whiteSpace=wrap;rounded=1;size=0.14;arcSize=6;" vertex="1" parent="WIyWlLk6GJQsqaUBKTNV-1">
          <mxGeometry x="810" y="430" width="280" height="30" as="geometry" />
        </mxCell>
        <mxCell id="fKDOiJsQA8onxevD5LG3-29" value="Task 6" style="verticalLabelPosition=bottom;verticalAlign=top;html=1;shape=process;whiteSpace=wrap;rounded=1;size=0.14;arcSize=6;" vertex="1" parent="WIyWlLk6GJQsqaUBKTNV-1">
          <mxGeometry x="1140" y="370" width="280" height="30" as="geometry" />
        </mxCell>
        <mxCell id="fKDOiJsQA8onxevD5LG3-32" value="" style="endArrow=classic;html=1;rounded=0;fontFamily=Helvetica;entryX=0.5;entryY=0;entryDx=0;entryDy=0;" edge="1" parent="WIyWlLk6GJQsqaUBKTNV-1" source="fKDOiJsQA8onxevD5LG3-1" target="fKDOiJsQA8onxevD5LG3-3">
          <mxGeometry width="50" height="50" relative="1" as="geometry">
            <mxPoint x="910" y="700" as="sourcePoint" />
            <mxPoint x="960" y="650" as="targetPoint" />
          </mxGeometry>
        </mxCell>
        <object label="System A" title="Queue System Input A" id="fKDOiJsQA8onxevD5LG3-33">
          <mxCell style="strokeWidth=2;html=1;shape=mxgraph.flowchart.start_1;whiteSpace=wrap;fontFamily=Helvetica;fillColor=#E8E8E8;" vertex="1" parent="WIyWlLk6GJQsqaUBKTNV-1">
            <mxGeometry x="1120" y="40" width="100" height="60" as="geometry" />
          </mxCell>
        </object>
        <object label="Service B" title="Service B" id="fKDOiJsQA8onxevD5LG3-34">
          <mxCell style="strokeWidth=2;html=1;shape=mxgraph.flowchart.multi-document;whiteSpace=wrap;fontFamily=Helvetica;fillColor=#CCE5FF;" vertex="1" parent="WIyWlLk6GJQsqaUBKTNV-1">
            <mxGeometry x="230" y="360" width="280" height="190" as="geometry" />
          </mxCell>
        </object>
        <mxCell id="fKDOiJsQA8onxevD5LG3-35" value="" style="endArrow=classic;html=1;rounded=0;fontFamily=Helvetica;exitX=0;exitY=0.5;exitDx=0;exitDy=0;entryX=1;entryY=0.5;entryDx=0;entryDy=0;entryPerimeter=0;dashed=1;" edge="1" parent="WIyWlLk6GJQsqaUBKTNV-1" source="fKDOiJsQA8onxevD5LG3-25" target="fKDOiJsQA8onxevD5LG3-34">
          <mxGeometry width="50" height="50" relative="1" as="geometry">
            <mxPoint x="650" y="440" as="sourcePoint" />
            <mxPoint x="700" y="390" as="targetPoint" />
          </mxGeometry>
        </mxCell>
        <mxCell id="fKDOiJsQA8onxevD5LG3-36" value="" style="endArrow=classic;html=1;rounded=0;dashed=1;fontFamily=Helvetica;exitX=0;exitY=0.5;exitDx=0;exitDy=0;entryX=1;entryY=0.5;entryDx=0;entryDy=0;entryPerimeter=0;" edge="1" parent="WIyWlLk6GJQsqaUBKTNV-1" source="fKDOiJsQA8onxevD5LG3-24" target="fKDOiJsQA8onxevD5LG3-34">
          <mxGeometry width="50" height="50" relative="1" as="geometry">
            <mxPoint x="850" y="440" as="sourcePoint" />
            <mxPoint x="900" y="390" as="targetPoint" />
          </mxGeometry>
        </mxCell>
        <mxCell id="fKDOiJsQA8onxevD5LG3-37" value="" style="endArrow=classic;html=1;rounded=0;dashed=1;fontFamily=Helvetica;exitX=0;exitY=0.5;exitDx=0;exitDy=0;entryX=1;entryY=0.5;entryDx=0;entryDy=0;entryPerimeter=0;" edge="1" parent="WIyWlLk6GJQsqaUBKTNV-1" source="fKDOiJsQA8onxevD5LG3-23" target="fKDOiJsQA8onxevD5LG3-34">
          <mxGeometry width="50" height="50" relative="1" as="geometry">
            <mxPoint x="850" y="440" as="sourcePoint" />
            <mxPoint x="560" y="400" as="targetPoint" />
          </mxGeometry>
        </mxCell>
        <mxCell id="fKDOiJsQA8onxevD5LG3-38" value="" style="endArrow=classic;html=1;rounded=0;dashed=1;fontFamily=Helvetica;exitX=0;exitY=0.5;exitDx=0;exitDy=0;entryX=1;entryY=0.5;entryDx=0;entryDy=0;entryPerimeter=0;" edge="1" parent="WIyWlLk6GJQsqaUBKTNV-1" source="fKDOiJsQA8onxevD5LG3-17" target="fKDOiJsQA8onxevD5LG3-34">
          <mxGeometry width="50" height="50" relative="1" as="geometry">
            <mxPoint x="850" y="440" as="sourcePoint" />
            <mxPoint x="560" y="400" as="targetPoint" />
          </mxGeometry>
        </mxCell>
        <mxCell id="fKDOiJsQA8onxevD5LG3-39" value="" style="endArrow=classic;html=1;rounded=0;dashed=1;fontFamily=Helvetica;exitX=0;exitY=0.5;exitDx=0;exitDy=0;entryX=1;entryY=0.5;entryDx=0;entryDy=0;entryPerimeter=0;" edge="1" parent="WIyWlLk6GJQsqaUBKTNV-1" source="fKDOiJsQA8onxevD5LG3-26" target="fKDOiJsQA8onxevD5LG3-34">
          <mxGeometry width="50" height="50" relative="1" as="geometry">
            <mxPoint x="850" y="440" as="sourcePoint" />
            <mxPoint x="900" y="390" as="targetPoint" />
          </mxGeometry>
        </mxCell>
        <mxCell id="fKDOiJsQA8onxevD5LG3-40" value="" style="endArrow=classic;html=1;rounded=0;dashed=1;fontFamily=Helvetica;exitX=0;exitY=0.5;exitDx=0;exitDy=0;entryX=1;entryY=0.5;entryDx=0;entryDy=0;entryPerimeter=0;" edge="1" parent="WIyWlLk6GJQsqaUBKTNV-1" source="fKDOiJsQA8onxevD5LG3-29" target="fKDOiJsQA8onxevD5LG3-34">
          <mxGeometry width="50" height="50" relative="1" as="geometry">
            <mxPoint x="850" y="440" as="sourcePoint" />
            <mxPoint x="660" y="400" as="targetPoint" />
          </mxGeometry>
        </mxCell>
        <mxCell id="fKDOiJsQA8onxevD5LG3-41" value="" style="endArrow=classic;html=1;rounded=0;dashed=1;fontFamily=Helvetica;exitX=0.5;exitY=1;exitDx=0;exitDy=0;" edge="1" parent="WIyWlLk6GJQsqaUBKTNV-1" source="fKDOiJsQA8onxevD5LG3-15">
          <mxGeometry width="50" height="50" relative="1" as="geometry">
            <mxPoint x="970" y="440" as="sourcePoint" />
            <mxPoint x="1170" y="690" as="targetPoint" />
          </mxGeometry>
        </mxCell>
        <object label="End" title="End" id="fKDOiJsQA8onxevD5LG3-42">
          <mxCell style="strokeWidth=2;html=1;shape=mxgraph.flowchart.terminator;whiteSpace=wrap;fontFamily=Helvetica;fillColor=#E8E8E8;" vertex="1" parent="WIyWlLk6GJQsqaUBKTNV-1">
            <mxGeometry x="1120" y="870" width="100" height="60" as="geometry" />
          </mxCell>
        </object>
        <mxCell id="fKDOiJsQA8onxevD5LG3-43" value="" style="endArrow=classic;html=1;rounded=0;fontFamily=Helvetica;exitX=0.5;exitY=1;exitDx=0;exitDy=0;entryX=0.5;entryY=0;entryDx=0;entryDy=0;entryPerimeter=0;" edge="1" parent="WIyWlLk6GJQsqaUBKTNV-1" source="fKDOiJsQA8onxevD5LG3-3" target="fKDOiJsQA8onxevD5LG3-42">
          <mxGeometry width="50" height="50" relative="1" as="geometry">
            <mxPoint x="1160" y="740" as="sourcePoint" />
            <mxPoint x="1210" y="690" as="targetPoint" />
          </mxGeometry>
        </mxCell>
        <mxCell id="fKDOiJsQA8onxevD5LG3-44" value="Other services in the environment" style="strokeWidth=2;html=1;shape=mxgraph.flowchart.annotation_1;align=center;pointerEvents=1;fontFamily=Helvetica;fillColor=#E8E8E8;whiteSpace=wrap;" vertex="1" parent="WIyWlLk6GJQsqaUBKTNV-1">
          <mxGeometry x="40" y="360" width="140" height="190" as="geometry" />
        </mxCell>
        <object label="QM Database" title="QM Database" id="fKDOiJsQA8onxevD5LG3-45">
          <mxCell style="strokeWidth=2;html=1;shape=mxgraph.flowchart.database;whiteSpace=wrap;fontFamily=Helvetica;fillColor=#FFFFFF;" vertex="1" parent="WIyWlLk6GJQsqaUBKTNV-1">
            <mxGeometry x="530" y="180" width="120" height="100" as="geometry" />
          </mxCell>
        </object>
        <mxCell id="fKDOiJsQA8onxevD5LG3-47" value="" style="endArrow=classic;html=1;rounded=0;fontFamily=Helvetica;entryX=1;entryY=0.5;entryDx=0;entryDy=0;entryPerimeter=0;strokeWidth=5;" edge="1" parent="WIyWlLk6GJQsqaUBKTNV-1" source="fKDOiJsQA8onxevD5LG3-1" target="fKDOiJsQA8onxevD5LG3-45">
          <mxGeometry width="50" height="50" relative="1" as="geometry">
            <mxPoint x="570" y="270" as="sourcePoint" />
            <mxPoint x="620" y="220" as="targetPoint" />
          </mxGeometry>
        </mxCell>
        <object label="QM REST" title="QM REST Interface" id="fKDOiJsQA8onxevD5LG3-48">
          <mxCell style="strokeWidth=2;html=1;shape=mxgraph.flowchart.multi-document;whiteSpace=wrap;fontFamily=Helvetica;fillColor=#FFFFFF;" vertex="1" parent="WIyWlLk6GJQsqaUBKTNV-1">
            <mxGeometry x="530" y="570" width="120" height="90" as="geometry" />
          </mxCell>
        </object>
        <object label="REST: Fetch Results" title="Fetch Results" id="fKDOiJsQA8onxevD5LG3-50">
          <mxCell style="endArrow=classic;html=1;rounded=0;strokeWidth=1;fontFamily=Helvetica;exitX=0;exitY=0.5;exitDx=0;exitDy=0;entryX=1;entryY=0.5;entryDx=0;entryDy=0;entryPerimeter=0;" edge="1" parent="WIyWlLk6GJQsqaUBKTNV-1" source="fKDOiJsQA8onxevD5LG3-3" target="fKDOiJsQA8onxevD5LG3-48">
            <mxGeometry width="50" height="50" relative="1" as="geometry">
              <mxPoint x="920" y="630" as="sourcePoint" />
              <mxPoint x="970" y="580" as="targetPoint" />
            </mxGeometry>
          </mxCell>
        </object>
        <mxCell id="fKDOiJsQA8onxevD5LG3-51" value="" style="endArrow=classic;html=1;rounded=0;strokeWidth=5;fontFamily=Helvetica;exitX=-0.003;exitY=0.867;exitDx=0;exitDy=0;exitPerimeter=0;entryX=1.017;entryY=0.244;entryDx=0;entryDy=0;entryPerimeter=0;" edge="1" parent="WIyWlLk6GJQsqaUBKTNV-1" source="fKDOiJsQA8onxevD5LG3-1" target="fKDOiJsQA8onxevD5LG3-48">
          <mxGeometry width="50" height="50" relative="1" as="geometry">
            <mxPoint x="780" y="710" as="sourcePoint" />
            <mxPoint x="830" y="660" as="targetPoint" />
          </mxGeometry>
        </mxCell>
      </root>
    </mxGraphModel>
  </diagram>
</mxfile>
